<?xml version="1.0" encoding="utf-8"?>
<!-- Generator: Adobe Illustrator 25.4.0, SVG Export Plug-In . SVG Version: 6.00 Build 0)  -->
<svg version="1.1" id="Layer_1" xmlns="http://www.w3.org/2000/svg" xmlns:xlink="http://www.w3.org/1999/xlink" x="0px" y="0px"
	 viewBox="0 0 283.5 283.5" style="enable-background:new 0 0 283.5 283.5;" xml:space="preserve">
<style type="text/css">
	.st0{fill:#FFFFFF;}
	.st1{fill:#144984;}
	.st2{fill:url(#SVGID_1_);}
	.st3{fill:url(#SVGID_00000034089341144687190750000007265564599100700065_);}
	.st4{fill:url(#SVGID_00000081625728441144591470000011964481775396566669_);}
	.st5{fill:url(#SVGID_00000136396109478240025880000015552399219286107058_);}
	.st6{fill:url(#SVGID_00000143619681089814597460000005765681226923370172_);}
	.st7{fill:url(#SVGID_00000109722237266680795160000007237200946803368592_);}
	.st8{fill:url(#SVGID_00000104675917478281961080000000788001068350923147_);}
	.st9{fill:url(#SVGID_00000131329695481052265160000009866543226871229581_);}
	.st10{fill:url(#SVGID_00000075842692911537876850000004178772063406594728_);}
	.st11{fill:url(#SVGID_00000066485832142373517680000005401209893801886116_);}
	.st12{fill:url(#SVGID_00000065074061953405432490000002342713241959706532_);}
</style>
<rect y="0" class="st0" width="283.5" height="283.5"/>
<g>
	<path class="st1" d="M63.2,156.7c-2.5-1.5-5.4-2.3-8.4-2.3c-2.7,0-5.1,0.6-7.3,1.7c-2.1,1.1-3.8,2.5-5.1,4.1V155h-7.3v52.2h7.3v-22
		c1.3,1.6,3,3,5.1,4.1s4.5,1.6,7.2,1.6c3.1,0,5.9-0.8,8.4-2.3c2.5-1.6,4.5-3.7,6-6.6c1.5-2.8,2.2-6,2.2-9.5c0-3.6-0.7-6.7-2.2-9.4
		C67.8,160.3,65.8,158.2,63.2,156.7z M62.4,178.9c-1,1.8-2.3,3.2-4,4.2c-1.6,1-3.4,1.4-5.3,1.4c-1.8,0-3.6-0.5-5.2-1.4
		c-1.6-0.9-3-2.3-4-4.1s-1.5-3.9-1.5-6.4c0-2.4,0.5-4.6,1.5-6.4c1-1.8,2.3-3.2,4-4.1c1.6-0.9,3.4-1.4,5.2-1.4c1.9,0,3.7,0.5,5.3,1.4
		s3,2.3,4,4c1,1.8,1.5,3.9,1.5,6.3C63.9,174.9,63.4,177.1,62.4,178.9z M102.8,156.6c-2.6-1.5-5.6-2.2-8.9-2.2
		c-3.5,0-6.5,0.7-9.2,2.2s-4.8,3.6-6.2,6.4c-1.5,2.8-2.2,6-2.2,9.6s0.8,6.8,2.3,9.6s3.6,4.9,6.3,6.4c2.7,1.5,5.7,2.3,9.1,2.3
		c4.2,0,7.6-1,10.4-3.1s4.7-4.7,5.8-8h-7.9c-1.6,3.3-4.4,4.9-8.3,4.9c-2.7,0-5.1-0.9-6.9-2.6c-1.9-1.7-2.9-4-3.1-6.8h27
		c0.2-1.1,0.3-2.3,0.3-3.6c0-3.4-0.7-6.5-2.2-9.1C107.5,160.1,105.4,158,102.8,156.6z M83.9,169.5c0.3-2.7,1.4-4.9,3.2-6.5
		s4-2.4,6.5-2.4c2.8,0,5.1,0.8,7,2.4c1.9,1.6,2.8,3.8,2.9,6.5H83.9z M143.1,156.6c-2.7-1.5-5.8-2.2-9.2-2.2s-6.4,0.7-9.2,2.2
		c-2.7,1.5-4.9,3.6-6.5,6.4c-1.6,2.8-2.4,6-2.4,9.6s0.8,6.8,2.3,9.6s3.7,4.9,6.4,6.4c2.7,1.5,5.7,2.3,9.1,2.3c3.4,0,6.5-0.8,9.3-2.3
		s5-3.7,6.6-6.5s2.4-6,2.4-9.6s-0.8-6.8-2.4-9.6C148,160.3,145.9,158.1,143.1,156.6z M143,179.2c-1,1.8-2.4,3.1-4,4
		s-3.4,1.3-5.3,1.3c-3,0-5.4-1-7.4-3.1c-1.9-2.1-2.9-5-2.9-8.8c0-2.6,0.5-4.7,1.4-6.5s2.2-3.1,3.8-4c1.6-0.9,3.4-1.3,5.2-1.3
		c1.9,0,3.6,0.4,5.3,1.3c1.6,0.9,2.9,2.2,3.9,4s1.5,3.9,1.5,6.5C144.5,175.2,144,177.4,143,179.2z M186.1,156.7
		c-2.5-1.5-5.4-2.3-8.4-2.3c-2.7,0-5.1,0.6-7.3,1.7c-2.1,1.1-3.8,2.5-5.1,4.1V155H158v52.2h7.3v-22c1.3,1.6,3,3,5.1,4.1
		s4.5,1.6,7.2,1.6c3.1,0,5.9-0.8,8.4-2.3c2.5-1.6,4.5-3.7,6-6.6c1.5-2.8,2.2-6,2.2-9.5c0-3.6-0.7-6.7-2.2-9.4
		C190.6,160.3,188.6,158.2,186.1,156.7z M185.3,178.9c-1,1.8-2.3,3.2-4,4.2c-1.6,1-3.4,1.4-5.3,1.4c-1.8,0-3.6-0.5-5.2-1.4
		c-1.6-0.9-3-2.3-4-4.1s-1.5-3.9-1.5-6.4c0-2.4,0.5-4.6,1.5-6.4c1-1.8,2.3-3.2,4-4.1c1.6-0.9,3.4-1.4,5.2-1.4c1.9,0,3.7,0.5,5.3,1.4
		s3,2.3,4,4c1,1.8,1.5,3.9,1.5,6.3C186.8,174.9,186.3,177.1,185.3,178.9z M200.2,142.8h7.3v47.5h-7.3V142.8z M248.3,171.8
		c0-3.4-0.7-6.5-2.2-9.1s-3.5-4.7-6.1-6.1c-2.6-1.5-5.6-2.2-8.9-2.2c-3.5,0-6.5,0.7-9.2,2.2s-4.8,3.6-6.2,6.4
		c-1.5,2.8-2.2,6-2.2,9.6s0.8,6.8,2.3,9.6s3.6,4.9,6.3,6.4s5.7,2.3,9.1,2.3c4.2,0,7.6-1,10.4-3.1c2.8-2.1,4.7-4.7,5.8-8h-7.9
		c-1.6,3.3-4.4,4.9-8.3,4.9c-2.7,0-5.1-0.9-6.9-2.6c-1.9-1.7-2.9-4-3.1-6.8h27C248.3,174.3,248.3,173.1,248.3,171.8z M221.1,169.5
		c0.3-2.7,1.4-4.9,3.2-6.5s4-2.4,6.5-2.4c2.8,0,5.1,0.8,7,2.4c1.9,1.6,2.8,3.8,2.9,6.5H221.1z"/>
	<path class="st1" d="M195.5,241c0.4,0.7,0.6,1.6,0.6,2.7v6.8h-2.4V244c0-1-0.3-1.8-0.8-2.4c-0.5-0.6-1.2-0.8-2.1-0.8
		c-0.9,0-1.6,0.3-2.1,0.8c-0.5,0.6-0.8,1.4-0.8,2.4v6.5h-2.4V235h2.4v5.3c0.4-0.5,0.9-0.9,1.5-1.1c0.6-0.3,1.3-0.4,2.1-0.4
		c0.9,0,1.7,0.2,2.4,0.6C194.6,239.7,195.1,240.3,195.5,241z M208.7,241.5c0.5,0.9,0.7,1.9,0.7,3c0,0.4,0,0.8-0.1,1.2h-8.9
		c0.1,0.9,0.4,1.7,1,2.2c0.6,0.6,1.4,0.8,2.3,0.8c1.3,0,2.2-0.5,2.7-1.6h2.6c-0.4,1.1-1,1.9-1.9,2.6c-0.9,0.7-2.1,1-3.4,1
		c-1.1,0-2.1-0.2-3-0.7s-1.6-1.2-2.1-2.1s-0.7-2-0.7-3.1c0-1.2,0.2-2.2,0.7-3.1c0.5-0.9,1.2-1.6,2-2.1c0.9-0.5,1.9-0.7,3-0.7
		s2.1,0.2,2.9,0.7C207.5,240,208.2,240.7,208.7,241.5z M206.9,243.7c0-0.9-0.3-1.6-0.9-2.1c-0.6-0.5-1.4-0.8-2.3-0.8
		c-0.8,0-1.5,0.3-2.1,0.8s-0.9,1.2-1.1,2.1H206.9z M220,239h2.4v11.6H220v-1.7c-0.4,0.5-1,1-1.7,1.4s-1.5,0.5-2.4,0.5
		c-1,0-1.9-0.3-2.7-0.8s-1.5-1.2-2-2.1c-0.5-0.9-0.7-2-0.7-3.1c0-1.2,0.2-2.2,0.7-3.1c0.5-0.9,1.1-1.6,2-2.1
		c0.8-0.5,1.8-0.7,2.8-0.7c0.9,0,1.7,0.2,2.4,0.5c0.7,0.4,1.2,0.8,1.6,1.3L220,239L220,239z M220,244.8c0-0.8-0.2-1.5-0.5-2.1
		s-0.8-1-1.3-1.3s-1.1-0.5-1.7-0.5c-0.6,0-1.2,0.2-1.7,0.5s-1,0.7-1.3,1.3s-0.5,1.3-0.5,2.1s0.2,1.5,0.5,2.1s0.8,1.1,1.3,1.4
		c0.5,0.3,1.1,0.5,1.7,0.5c0.6,0,1.2-0.2,1.7-0.5s1-0.8,1.3-1.4C219.9,246.3,220,245.6,220,244.8z M225.2,250.6h2.4V235h-2.4V250.6z
		 M233.1,236.1h-2.4v2.9h-1.4v2h1.4v6.4c0,1.1,0.3,2,0.9,2.5c0.6,0.5,1.4,0.8,2.5,0.8h1.9v-2h-1.5c-0.5,0-0.8-0.1-1-0.3
		s-0.3-0.5-0.3-0.9v-6.4h2.8v-2h-2.8L233.1,236.1L233.1,236.1z M247.7,241c-0.4-0.7-0.9-1.3-1.6-1.7c-0.7-0.4-1.5-0.6-2.4-0.6
		c-0.7,0-1.4,0.1-2.1,0.4c-0.6,0.3-1.1,0.6-1.5,1.1V235h-2.4v15.6h2.4v-6.5c0-1,0.3-1.8,0.8-2.4c0.5-0.6,1.2-0.8,2.1-0.8
		c0.9,0,1.6,0.3,2.1,0.8c0.5,0.6,0.8,1.4,0.8,2.4v6.5h2.4v-6.8C248.3,242.7,248.2,241.8,247.7,241z"/>
	
		<linearGradient id="SVGID_1_" gradientUnits="userSpaceOnUse" x1="35.1" y1="538.8" x2="177.7" y2="538.8" gradientTransform="matrix(1 0 0 1 0 -312)">
		<stop  offset="1.179935e-03" style="stop-color:#004767"/>
		<stop  offset="1" style="stop-color:#053138"/>
	</linearGradient>
	<path class="st2" d="M79.9,214.9h10.3l-9.7,35.8H68.4l-5.7-23.3l-5.8,23.3h-12l-9.8-35.8h11l5.1,25.6l6-25.6h11.6l6.1,25.5
		L79.9,214.9z M128.2,240.8c-0.5-0.5-0.8-1.2-0.8-2.3v-14.4h7.2V215h-7.2v-8.7h-11v8.7H112v9.1h4.4v14.3c0,4.4,1.1,7.6,3.3,9.5
		c2.2,1.9,5.3,2.9,9.3,2.9h5.6v-9.3h-3.9C129.5,241.5,128.7,241.2,128.2,240.8z M174,218.6c-2.5-2.7-5.8-4.1-9.9-4.1
		c-2.4,0-4.6,0.5-6.5,1.4s-3.4,2.2-4.6,3.8v-16.5h-11v47.5h11v-19.5c0-2.4,0.6-4.3,1.9-5.6c1.2-1.3,2.9-2,5-2s3.8,0.7,5,2
		s1.9,3.2,1.9,5.6v19.5h10.9v-20.9C177.7,225.1,176.5,221.3,174,218.6z M101.3,202.8c-3.4,0-6.1,2.7-6.1,6.1c0,3.4,2.7,6.1,6.1,6.1
		s6.1-2.7,6.1-6.1C107.4,205.6,104.6,202.8,101.3,202.8z M101.3,219.3c-2.3,0-4.4-1.3-5.5-3.1v34.6h11v-34.5
		C105.6,218.1,103.6,219.3,101.3,219.3z"/>
</g>
<g>
	<g>
		<circle class="st1" cx="185.5" cy="88.6" r="10.9"/>
		
			<linearGradient id="SVGID_00000090263970474829486770000002819947579445415856_" gradientUnits="userSpaceOnUse" x1="-6932.7139" y1="7158.7588" x2="-6910.9419" y2="7158.7588" gradientTransform="matrix(-1 0 0 -1 -6856.9917 7247.3584)">
			<stop  offset="1.179935e-03" style="stop-color:#004767"/>
			<stop  offset="1" style="stop-color:#053138"/>
		</linearGradient>
		<circle style="fill:url(#SVGID_00000090263970474829486770000002819947579445415856_);" cx="64.8" cy="88.6" r="10.9"/>
		<path class="st1" d="M166.3,104.6v-4.2h1.5v4.2c3.3,0.4,5.8,3.1,5.8,6.5c0,3.6-2.9,6.5-6.5,6.5s-6.5-2.9-6.5-6.5
			C160.5,107.7,163.1,104.9,166.3,104.6z"/>
		<path class="st1" d="M146.7,109.2V96.4h1.5v12.9c4.8,0.4,8.6,4.4,8.6,9.3c0,5.2-4.2,9.3-9.3,9.3c-5.2,0-9.3-4.2-9.3-9.3
			C138.2,113.6,141.9,109.6,146.7,109.2z"/>
		<path class="st1" d="M81.9,104.6V80.3h1.5v24.2c3.3,0.4,5.8,3.1,5.8,6.5c0,3.6-2.9,6.5-6.5,6.5s-6.5-2.9-6.5-6.5
			C76.2,107.7,78.7,104.9,81.9,104.6z"/>
		<path class="st1" d="M101.5,109.2V84.4h1.5v24.9c4.8,0.4,8.6,4.4,8.6,9.3c0,5.2-4.2,9.3-9.3,9.3c-5.2,0-9.3-4.2-9.3-9.3
			C92.9,113.6,96.7,109.6,101.5,109.2z"/>
		<path class="st1" d="M124.1,119.7V92.4h1.5v27.3c5.7,0.4,10.1,5.1,10.1,10.8c0,6-4.9,10.9-10.9,10.9s-10.9-4.9-10.9-10.9
			C114,124.7,118.5,120,124.1,119.7z"/>
		
			<linearGradient id="SVGID_00000088837453166816649860000006706279727505474442_" gradientUnits="userSpaceOnUse" x1="-6946.2388" y1="7177.5586" x2="-6933.1504" y2="7177.5586" gradientTransform="matrix(-1 0 0 -1 -6856.9917 7247.3584)">
			<stop  offset="1.179935e-03" style="stop-color:#004767"/>
			<stop  offset="1" style="stop-color:#053138"/>
		</linearGradient>
		<path style="fill:url(#SVGID_00000088837453166816649860000006706279727505474442_);" d="M76.2,65.7c0-3.6,2.9-6.5,6.5-6.5
			s6.5,2.9,6.5,6.5c0,3.4-2.5,6.1-5.8,6.5v8.2h-1.5v-8.2C78.7,71.7,76.2,69,76.2,65.7z"/>
		
			<linearGradient id="SVGID_00000132795147988326934320000002624925474802062494_" gradientUnits="userSpaceOnUse" x1="-6968.6187" y1="7180.8086" x2="-6949.938" y2="7180.8086" gradientTransform="matrix(-1 0 0 -1 -6856.9917 7247.3584)">
			<stop  offset="1.179935e-03" style="stop-color:#004767"/>
			<stop  offset="1" style="stop-color:#053138"/>
		</linearGradient>
		<path style="fill:url(#SVGID_00000132795147988326934320000002624925474802062494_);" d="M92.9,58.1c0-5.2,4.2-9.3,9.3-9.3
			c5.2,0,9.3,4.2,9.3,9.3c0,4.9-3.8,8.9-8.6,9.3v16.9h-1.5V67.4C96.7,67,92.9,63,92.9,58.1z"/>
		
			<linearGradient id="SVGID_00000160184428799134634730000018328224012421163928_" gradientUnits="userSpaceOnUse" x1="-7030.6172" y1="7167.6587" x2="-7017.5288" y2="7167.6587" gradientTransform="matrix(-1 0 0 -1 -6856.9917 7247.3584)">
			<stop  offset="1.179935e-03" style="stop-color:#004767"/>
			<stop  offset="1" style="stop-color:#053138"/>
		</linearGradient>
		<path style="fill:url(#SVGID_00000160184428799134634730000018328224012421163928_);" d="M166.3,72.1v28.2h1.5V72.1
			c3.3-0.4,5.8-3.1,5.8-6.5c0-3.6-2.9-6.5-6.5-6.5s-6.5,2.9-6.5,6.5C160.5,69,163.1,71.7,166.3,72.1z"/>
		
			<linearGradient id="SVGID_00000078748021775778851480000014222750337201324973_" gradientUnits="userSpaceOnUse" x1="-7013.8296" y1="7174.8086" x2="-6995.1484" y2="7174.8086" gradientTransform="matrix(-1 0 0 -1 -6856.9917 7247.3584)">
			<stop  offset="1.179935e-03" style="stop-color:#004767"/>
			<stop  offset="1" style="stop-color:#053138"/>
		</linearGradient>
		<path style="fill:url(#SVGID_00000078748021775778851480000014222750337201324973_);" d="M138.2,58.1c0-5.2,4.2-9.3,9.3-9.3
			c5.2,0,9.3,4.2,9.3,9.3c0,4.9-3.8,8.9-8.6,9.3v28.9h-1.5V67.4C141.9,67,138.2,63,138.2,58.1z"/>
		
			<linearGradient id="SVGID_00000089541549326976981550000008044683960760587438_" gradientUnits="userSpaceOnUse" x1="-6992.7695" y1="7183.5088" x2="-6970.998" y2="7183.5088" gradientTransform="matrix(-1 0 0 -1 -6856.9917 7247.3584)">
			<stop  offset="1.179935e-03" style="stop-color:#004767"/>
			<stop  offset="1" style="stop-color:#053138"/>
		</linearGradient>
		<path style="fill:url(#SVGID_00000089541549326976981550000008044683960760587438_);" d="M114,46.2c0-6,4.9-10.9,10.9-10.9
			c6,0,10.9,4.9,10.9,10.9c0,5.8-4.5,10.5-10.1,10.8v35.4h-1.5V57C118.5,56.6,114,51.9,114,46.2z"/>
	</g>
	<g>
		<circle class="st1" cx="185.5" cy="88.6" r="10.9"/>
		<path class="st1" d="M204.7,72.6v4.2h-1.5v-4.2c-3.3-0.4-5.8-3.1-5.8-6.5c0-3.6,2.9-6.5,6.5-6.5s6.5,2.9,6.5,6.5
			C210.4,69.5,207.9,72.3,204.7,72.6z"/>
		<path class="st1" d="M224.2,67.9v12.9h-1.5V67.9c-4.8-0.4-8.6-4.4-8.6-9.3c0-5.2,4.2-9.3,9.3-9.3c5.2,0,9.3,4.2,9.3,9.3
			C232.8,63.5,229,67.6,224.2,67.9z"/>
		<path class="st1" d="M269.5,67.9v24.9H268V67.9c-4.8-0.4-8.6-4.4-8.6-9.3c0-5.2,4.2-9.3,9.3-9.3c5.2,0,9.3,4.2,9.3,9.3
			C278,63.5,274.3,67.6,269.5,67.9z"/>
		<path class="st1" d="M246.9,57.5v27.3h-1.5V57.5c-5.7-0.4-10.1-5.1-10.1-10.8c0-6,4.9-10.9,10.9-10.9S257,40.7,257,46.7
			C257,52.4,252.5,57.1,246.9,57.5z"/>
		
			<linearGradient id="SVGID_00000096771697921311646690000013718405333357777024_" gradientUnits="userSpaceOnUse" x1="-4716.6509" y1="7365.459" x2="-4697.9697" y2="7365.459" gradientTransform="matrix(1 0 0 1 4976.0059 -7254.8589)">
			<stop  offset="1.179935e-03" style="stop-color:#004767"/>
			<stop  offset="1" style="stop-color:#053138"/>
		</linearGradient>
		<path style="fill:url(#SVGID_00000096771697921311646690000013718405333357777024_);" d="M278,119.1c0,5.2-4.2,9.3-9.3,9.3
			c-5.2,0-9.3-4.2-9.3-9.3c0-4.9,3.8-8.9,8.6-9.3v-17h1.5v16.9C274.3,110.2,278,114.2,278,119.1z"/>
		
			<linearGradient id="SVGID_00000029725575909027760510000002836645092549561984_" gradientUnits="userSpaceOnUse" x1="-4778.6494" y1="7352.3589" x2="-4765.561" y2="7352.3589" gradientTransform="matrix(1 0 0 1 4976.0059 -7254.8589)">
			<stop  offset="1.179935e-03" style="stop-color:#004767"/>
			<stop  offset="1" style="stop-color:#053138"/>
		</linearGradient>
		<path style="fill:url(#SVGID_00000029725575909027760510000002836645092549561984_);" d="M204.7,105.1V76.9h-1.5v28.2
			c-3.3,0.4-5.8,3.1-5.8,6.5c0,3.6,2.9,6.5,6.5,6.5s6.5-2.9,6.5-6.5C210.4,108.2,207.9,105.5,204.7,105.1z"/>
		
			<linearGradient id="SVGID_00000072262482137537962060000009287767097683635366_" gradientUnits="userSpaceOnUse" x1="-4761.8618" y1="7359.5093" x2="-4743.1807" y2="7359.5093" gradientTransform="matrix(1 0 0 1 4976.0059 -7254.8589)">
			<stop  offset="1.179935e-03" style="stop-color:#004767"/>
			<stop  offset="1" style="stop-color:#053138"/>
		</linearGradient>
		<path style="fill:url(#SVGID_00000072262482137537962060000009287767097683635366_);" d="M232.8,119.1c0,5.2-4.2,9.3-9.3,9.3
			c-5.2,0-9.3-4.2-9.3-9.3c0-4.9,3.8-8.9,8.6-9.3V80.9h1.5v28.9C229,110.2,232.8,114.2,232.8,119.1z"/>
		
			<linearGradient id="SVGID_00000112607265067862071040000014083025588747711145_" gradientUnits="userSpaceOnUse" x1="-4740.8057" y1="7368.209" x2="-4719.0337" y2="7368.209" gradientTransform="matrix(1 0 0 1 4976.0059 -7254.8589)">
			<stop  offset="1.179935e-03" style="stop-color:#004767"/>
			<stop  offset="1" style="stop-color:#053138"/>
		</linearGradient>
		<path style="fill:url(#SVGID_00000112607265067862071040000014083025588747711145_);" d="M257,131c0,6-4.9,10.9-10.9,10.9
			s-10.9-4.9-10.9-10.9c0-5.8,4.5-10.5,10.1-10.8V84.8h1.5v35.4C252.5,120.6,257,125.3,257,131z"/>
	</g>
</g>
</svg>
